<?xml version="1.0" encoding="UTF-8"?>
<svg version="1.1" viewBox="0 0 403.1 402" xmlns="http://www.w3.org/2000/svg">
 <g transform="translate(-7811,-9444)">
  <path d="m7831 9724c65 87 315 82 364-1 49-88-19-278-181-278-169 0-235 204-183 279z" fill="#e91c09"/>
  <path d="m8016 9691c-36 0-72 3-106 13-17 5-33 11-45 22-5 6-8 13-4 20 4 9 14 15 23 20 14 6 28 10 43 14 31 6 62 9 93 8 33 0 68-4 100-13 13-4 27-9 38-16 6-5 13-12 12-20 1-7-5-13-11-18-10-7-21-11-32-15-24-8-49-12-74-14-12-1-25-1-37-1z" fill="#362a1b" fill-rule="evenodd" opacity=".2"/>
  <g transform="matrix(.3226 0 0 .3226 5765 7620)" fill="#ff4372" fill-rule="evenodd" opacity=".8">
   <path transform="matrix(.9863 0 0 .9863 4592 5928)" d="m2719 58.2c0 168-140 304.2-312 304.2s-312-136.2-312-304.2 140-304.2 312-304.2 312 136.2 312 304.2z"/>
   <path d="m7472 5941c-23 57-32 133-22 214 14 113 62 207 120 251 28-141-7-318-98-465z"/>
   <path d="m6464 5945c-94 149-130 326-106 459 59-43 107-136 123-248 12-79 4-153-17-211z"/>
  </g>
  <path d="m7905 9811c0 6 32 32 110 32 77 0 98-24 104-32 14-14 19-61 17-64 0-5-52-41-119-43-73-2-125 40-125 40-6 20 3 58 13 67" fill="#d8c9a4"/>
  <path transform="matrix(.4378 0 0 .3968 6618 9494)" d="m3418 726.7a48.75 54.38 0 1 1 -98 0 48.75 54.38 0 1 1 98 0z" fill="#c09583" fill-rule="evenodd"/>
  <path transform="matrix(.4378 0 0 .3968 6457 9494)" d="m3418 726.7a48.75 54.38 0 1 1 -98 0 48.75 54.38 0 1 1 98 0z" fill="#c09583" fill-rule="evenodd"/>
  <path d="m7905 9811c0 6 32 32 110 32 77 0 98-24 104-32 14-14 19-61 17-64 0-5-52-41-119-43-73-2-125 40-125 40-6 20 3 58 13 67" fill="none" stroke="#d5ba66" stroke-width="2"/>
  <g transform="matrix(.3226 0 0 .3226 5763 6669)" fill-rule="evenodd">
   <rect x="6804" y="9484" width="60" height="153.3" rx="26.38" ry="11.47" fill="#1a1a1a"/>
   <path d="m6803 9555v-17l16 8c9 4 22 10 28 13l10 5-22 3c-13 2-25 4-27 4h-5v-16z" fill="#fff"/>
  </g>
  <g transform="matrix(.3226 0 0 .3226 5763 6669)" fill-rule="evenodd">
   <rect x="7064" y="9484" width="60" height="153.3" rx="26.38" ry="11.47" fill="#1a1a1a"/>
   <path d="m7063 9555v-17l16 8c9 4 22 10 28 13l10 5-22 3c-13 2-25 4-27 4h-5v-16z" fill="#fff"/>
  </g>
  <path transform="matrix(.233 0 0 .233 7151 9594)" d="m3780 774.1a90 104.4 0 1 1 -170 1.8" fill="#54413c" fill-rule="evenodd"/>
 </g>
</svg>
